<svg width="512" height="512" viewBox="0 0 512 512" fill="none" xmlns="http://www.w3.org/2000/svg">
  <rect width="512" height="512" rx="96" fill="transparent"/>
  <path d="M178 240C230 178 332 152 418 198C452 216 470 244 468 272C464 330 384 358 300 356C248 354 206 322 178 280C168 262 166 252 178 240Z" fill="#C7CED6"/>
  <path d="M110 320C188 280 268 280 402 308C412 310 418 320 414 330C410 340 398 344 388 342C266 312 196 314 120 346C110 350 100 346 96 336C92 326 98 316 110 320Z" fill="#18BFD3"/>
  <path d="M96 360C172 326 254 326 384 356C394 358 400 368 396 378C392 388 380 392 370 390C252 362 184 364 108 394C98 398 88 394 84 384C80 374 86 364 96 360Z" fill="#11A6C2"/>
  <path d="M120 400C190 372 260 372 344 392C354 394 360 404 356 414C352 424 340 428 330 426C258 408 196 410 132 438C122 442 112 438 108 428C104 418 110 406 120 400Z" fill="#0F8FB0"/>
</svg>
